<svg xmlns="http://www.w3.org/2000/svg" width="48" height="48" viewBox="0 0 48 48">
  <circle cx="24" cy="24" r="22" fill="#16a34a"/>
  <path d="M24 12c-4 0-8 3-8 10 0 4 2 8 4 12l2 6h4l2-6c2-4 4-8 4-12 0-7-4-10-8-10z" fill="#fff"/>
  <path d="M20 16c-2 2-3 6-1 10 1 2 3 5 5 7" fill="none" stroke="#16a34a" stroke-width="1.5"/>
  <path d="M28 16c2 2 3 6 1 10-1 2-3 5-5 7" fill="none" stroke="#16a34a" stroke-width="1.5"/>
  <path d="M22 13c-1-3-3-5-6-6 2 1 3 3 4 6" fill="#fff" opacity="0.8"/>
  <path d="M26 13c1-3 3-5 6-6-2 1-3 3-4 6" fill="#fff" opacity="0.8"/>
</svg>
